<svg width="34" height="34" viewBox="0 0 34 34" fill="none" xmlns="http://www.w3.org/2000/svg">
<path d="M24.9298 15.1792V20.9269L24.8664 20.9449C24.7392 20.9788 24.6093 21.001 24.4782 21.0111C24.3138 21.0252 24.136 21.0323 23.9445 21.0323C23.5856 21.034 23.2288 20.9771 22.8873 20.8638C22.5641 20.7591 22.269 20.579 22.0253 20.3374C21.7706 20.0749 21.5744 19.7588 21.4503 19.411C21.2979 18.9794 21.2248 18.5226 21.2348 18.0637L21.2353 17.9929C21.2445 17.3378 21.3847 16.8069 21.6557 16.4004C21.9271 15.9873 22.2985 15.6536 22.7334 15.4319C23.1799 15.2054 23.6722 15.0899 24.1703 15.095C24.3108 15.0946 24.4513 15.1016 24.5911 15.1161C24.7056 15.1273 24.8188 15.1484 24.9298 15.1792Z" fill="#FF7759"/>
<path fill-rule="evenodd" clip-rule="evenodd" d="M6.78027 1.70001H27.2201C30.0258 1.70001 32.3002 4.03276 32.3002 6.91035V27.0897C32.3002 29.9673 30.0258 32.3 27.2201 32.3H6.78027C3.97462 32.3 1.7002 29.9673 1.7002 27.0897V6.91035C1.7002 4.03276 3.97462 1.70001 6.78027 1.70001ZM13.9683 16.2109L17.7865 9.74722L17.7974 9.73717C17.8149 9.71826 17.8261 9.69401 17.8291 9.66806C17.832 9.6421 17.8267 9.61586 17.8139 9.59327C17.8011 9.57068 17.7815 9.55296 17.758 9.54279C17.7346 9.53261 17.7085 9.53053 17.6838 9.53685H14.9947C14.9381 9.53118 14.8812 9.54215 14.8305 9.56848C14.7923 9.60636 14.7641 9.65344 14.7483 9.70542C14.471 10.2598 14.187 10.8107 13.8964 11.358C13.6022 11.9124 13.3147 12.4635 13.0344 13.0109C12.749 13.5679 12.4718 14.1294 12.203 14.6951H12.1825C11.9202 14.1293 11.636 13.5744 11.3306 13.0318C11.0204 12.4807 10.7159 11.9263 10.4171 11.3686C10.116 10.8073 9.84231 10.2458 9.59595 9.68433C9.56404 9.63664 9.52184 9.59704 9.47284 9.56848C9.41426 9.5441 9.35116 9.5333 9.28804 9.53685H6.39371C6.37059 9.53523 6.34742 9.53915 6.32603 9.5483C6.30464 9.55745 6.28562 9.57158 6.27047 9.58956C6.24322 9.62487 6.25003 9.67048 6.29103 9.72638L10.1502 16.4214L6.18848 23.0955C6.1609 23.1391 6.14992 23.1915 6.15764 23.2429C6.16194 23.2774 6.17533 23.2823 6.19768 23.281L6.23784 23.2773L6.25003 23.2769H9.06225L9.10886 23.2762C9.22086 23.2724 9.30131 23.2491 9.34972 23.1375C9.65071 22.5905 9.94493 22.0395 10.2323 21.4848C10.5196 20.9306 10.8104 20.3725 11.1048 19.811C11.3967 19.2539 11.6807 18.6924 11.9567 18.1268H11.9773C12.2761 18.6984 12.5806 19.2668 12.8907 19.8321L13.0052 20.0422C13.2645 20.5194 13.5171 21.0003 13.7631 21.4848C14.038 22.0281 14.3117 22.5719 14.5842 23.1165C14.6539 23.2359 14.7683 23.2592 14.927 23.2634L14.9849 23.2644H17.9301C17.9492 23.2612 17.9662 23.2605 17.9815 23.2605L18.0098 23.2612L18.0329 23.2616C18.0539 23.2608 18.0675 23.2551 18.0738 23.2323C18.0869 23.1789 18.0796 23.1225 18.0533 23.0744L13.9683 16.2109ZM23.6777 23.5376L23.8192 23.536C24.4329 23.5252 25.0447 23.4623 25.6483 23.348C26.3593 23.2136 27.0543 23.0019 27.7216 22.7165C27.7604 22.6983 27.7929 22.6684 27.8149 22.6308C27.8369 22.5932 27.8473 22.5497 27.8448 22.5059L27.8245 22.19L27.7862 21.6438C27.7704 21.4031 27.7625 21.178 27.7625 20.9691V8.52617C27.7649 8.50901 27.7634 8.49152 27.7581 8.47508C27.7527 8.45863 27.7437 8.44369 27.7318 8.43144C27.7198 8.41918 27.7053 8.40995 27.6892 8.40448C27.6732 8.399 27.6562 8.39743 27.6394 8.39989H25.0529C24.9709 8.39989 24.9298 8.44918 24.9298 8.54725V12.6949L24.8206 12.6851L24.6715 12.6729L24.5397 12.6633L24.4613 12.6586L24.3908 12.6554L24.3279 12.6534L24.273 12.6528C23.0138 12.6528 21.9395 12.9054 21.0502 13.4108L20.9798 13.45C20.1618 13.9147 19.4833 14.6 19.018 15.4319C18.553 16.2723 18.3123 17.2236 18.3199 18.1899L18.3204 18.2837C18.3321 19.4353 18.5647 20.3972 19.0179 21.169C19.4673 21.9477 20.1366 22.5681 20.9372 22.9481C21.7967 23.351 22.7328 23.5523 23.6777 23.5376Z" fill="#FF7759"/>
</svg>
