<svg width="34" height="34" viewBox="0 0 34 34" fill="none" xmlns="http://www.w3.org/2000/svg">
<path d="M15.1259 15.3392C14.9984 14.9338 14.8837 14.5415 14.7562 14.1362C14.6287 13.7308 14.5139 13.3515 14.4119 12.9723C14.3099 12.6062 14.2207 12.2662 14.1314 11.9523H14.1059C13.9912 12.5146 13.8509 13.0769 13.6724 13.6392C13.4812 14.2669 13.2899 14.9208 13.0859 15.5746C12.9074 16.2415 12.7162 16.8562 12.5249 17.4054H15.7634C15.6869 17.1295 15.5849 16.8038 15.4702 16.4625C15.3554 16.1108 15.2407 15.7315 15.1259 15.3392ZM26.8814 1.7H7.11895C4.1227 1.7 1.7002 4.18461 1.7002 7.25769V26.7423C1.7002 29.8154 4.1227 32.3 7.11895 32.3H26.8814C29.8777 32.3 32.3002 29.8154 32.3002 26.7423V7.25769C32.3002 4.18461 29.8777 1.7 26.8814 1.7ZM20.4427 23.3162H17.7767C17.6887 23.3292 17.5994 23.2638 17.5739 23.1723L16.5284 20.06H11.7854L10.8164 23.1331C10.7909 23.2508 10.6889 23.3292 10.5742 23.3175H8.1772C8.03694 23.3175 7.99869 23.2377 8.03694 23.0821L12.1424 10.9585C12.1807 10.8277 12.2189 10.6838 12.2699 10.5269C12.3209 10.2523 12.3464 9.96461 12.3464 9.67692C12.3337 9.61154 12.3847 9.54615 12.4484 9.53307H15.7507C15.8527 9.53307 15.9037 9.5723 15.9164 9.63769L20.5702 23.1069C20.6084 23.2495 20.5702 23.3162 20.4427 23.3162ZM24.7777 23.12C24.7777 23.2638 24.728 23.3292 24.6132 23.3292H22.1129C21.9854 23.3292 21.9217 23.2495 21.9217 23.12V13.0508C21.9217 12.92 21.974 12.8677 22.0887 12.8677H24.6132C24.728 12.8677 24.7777 12.9331 24.7777 13.0508V23.12ZM24.5112 11.3115C24.3606 11.4684 24.1791 11.5904 23.9788 11.6693C23.7784 11.7483 23.5639 11.7823 23.3497 11.7692C22.9289 11.7823 22.5209 11.6123 22.2137 11.3115C21.9216 10.9839 21.766 10.5522 21.7802 10.1085C21.7674 9.66384 21.9332 9.24538 22.2379 8.94461C22.5464 8.64384 22.9544 8.48692 23.3752 8.48692C23.8737 8.48692 24.2537 8.64384 24.5354 8.94461C24.8159 9.25846 24.9689 9.67692 24.9562 10.1085C24.9689 10.5531 24.8159 10.9846 24.5112 11.3115Z" fill="#FF7759"/>
</svg>
