<svg width="36" height="34" viewBox="0 0 36 34" fill="none" xmlns="http://www.w3.org/2000/svg">
<path d="M27.274 3.09094C28.7661 3.09094 30.0419 3.60106 31.1014 4.6213C32.1609 5.64155 32.6906 6.87006 32.6906 8.30685V25.6932C32.6906 27.13 32.1609 28.3585 31.1014 29.3788C30.0419 30.399 28.7661 30.9091 27.274 30.9091H9.21842C7.72633 30.9091 6.45053 30.399 5.39102 29.3788C4.33151 28.3585 3.80176 27.13 3.80176 25.6932V8.30685C3.80176 6.87006 4.33151 5.64155 5.39102 4.6213C6.45053 3.60106 7.72633 3.09094 9.21842 3.09094H27.274ZM13.1869 9.7376H6.20917V23.9908H13.3938C14.8608 23.9908 16.0958 23.6437 17.0989 22.9494C18.102 22.2552 18.6036 21.2259 18.6036 19.8615C18.6036 17.9539 17.707 16.7465 15.914 16.2394C17.2557 15.6115 17.9265 14.6215 17.9265 13.2692C17.9265 12.581 17.8042 11.9984 17.5597 11.5215C17.3152 11.0446 16.961 10.6794 16.4971 10.4258C16.0331 10.1723 15.5379 9.99417 15.0112 9.89155C14.4846 9.78892 13.8765 9.7376 13.1869 9.7376ZM12.7731 15.4968H9.46293V12.1645H12.5286C14.0207 12.1645 14.7667 12.7078 14.7667 13.7944C14.7667 14.9294 14.1022 15.4968 12.7731 15.4968ZM12.9424 21.564H9.46293V17.6339H13.0176C14.5724 17.6339 15.3498 18.3161 15.3498 19.6804C15.3498 20.9361 14.5473 21.564 12.9424 21.564ZM25.1675 22.1435C24.3149 22.1435 23.6629 21.9141 23.2115 21.4553C22.7601 20.9965 22.5344 20.3505 22.5344 19.5174H30.2644C30.277 19.3967 30.2832 19.2156 30.2832 18.9741C30.2832 17.3804 29.8162 16.0492 28.8821 14.9807C27.9479 13.9121 26.6721 13.3779 25.0547 13.3779C23.4497 13.3779 22.1332 13.897 21.105 14.9354C20.0768 15.9738 19.5628 17.2777 19.5628 18.8473C19.5628 20.4773 20.058 21.7873 21.0486 22.7774C22.0391 23.7674 23.3745 24.2625 25.0547 24.2625C27.6251 24.2625 29.299 23.1094 30.0764 20.8033H27.4809C27.3429 21.2138 27.0452 21.5398 26.5875 21.7813C26.1298 22.0228 25.6565 22.1435 25.1675 22.1435ZM24.9794 15.5149C26.3963 15.5149 27.1737 16.2515 27.3116 17.7245H22.5344C22.5846 17.0483 22.8291 16.511 23.2679 16.1126C23.7068 15.7142 24.2773 15.5149 24.9794 15.5149ZM21.9325 10.6975H27.9323V12.092H21.9325V10.6975Z" fill="#FEFEFE"/>
</svg>
