<svg width="34" height="34" viewBox="0 0 34 34" fill="none" xmlns="http://www.w3.org/2000/svg">
<path fill-rule="evenodd" clip-rule="evenodd" d="M11.9212 0C8.45459 0 5.66659 2.90842 5.66659 6.47133C5.66659 8.63742 6.69793 10.5613 8.28318 11.7357C7.46616 12.3478 6.80391 13.1428 6.34952 14.057C5.89513 14.9712 5.66124 15.9791 5.66659 17C5.66659 19.1675 6.69793 21.0899 8.28318 22.2643C7.46616 22.8765 6.80391 23.6715 6.34952 24.5857C5.89513 25.4999 5.66124 26.5078 5.66659 27.5287C5.66659 31.0916 8.45459 34 11.9212 34C15.3863 34 18.1758 31.0916 18.1758 27.5287V22.0575C19.2713 22.971 20.6523 23.4717 22.0787 23.4727C25.5453 23.4713 28.3333 20.5629 28.3333 17C28.339 15.9791 28.1052 14.971 27.6508 14.0568C27.1964 13.1425 26.5339 12.3476 25.7167 11.7357C26.5337 11.1235 27.1959 10.3285 27.6503 9.41433C28.1047 8.50014 28.3386 7.49221 28.3333 6.47133C28.3333 2.90842 25.5453 0 22.0787 0H11.9212ZM8.01684 6.47133C8.01684 4.21742 9.77634 2.41258 11.9212 2.41258H15.8241V10.5301H11.9212C9.77634 10.5301 8.01684 8.72383 8.01684 6.47133ZM22.0787 10.5287H18.1758V2.41117H22.0787C24.2249 2.41117 25.983 4.21742 25.983 6.47133C25.983 8.72383 24.2249 10.5287 22.0787 10.5287ZM8.01826 17C8.01826 14.7475 9.77776 12.9412 11.9226 12.9412H15.8255V21.0587H11.9212C9.77493 21.0587 8.01684 19.2525 8.01684 17H8.01826ZM18.1758 17C18.1758 14.7475 19.9353 12.9412 22.0801 12.9412C24.2263 12.9412 25.9844 14.7461 25.9844 17C25.9844 19.2525 24.2263 21.0587 22.0801 21.0587C19.9353 21.0587 18.1772 19.2539 18.1772 17H18.1758ZM8.01826 27.5287C8.01826 25.2762 9.77776 23.4713 11.9226 23.4713H15.8255V27.5287C15.8255 29.7826 14.0688 31.5874 11.9226 31.5874C9.77776 31.5874 8.01826 29.7826 8.01826 27.5287Z" fill="#FF7759"/>
</svg>
