<svg width="35" height="34" viewBox="0 0 35 34" fill="none" xmlns="http://www.w3.org/2000/svg">
<path fill-rule="evenodd" clip-rule="evenodd" d="M11.9577 3.1744C13.498 3.10612 13.9891 3.09094 17.9127 3.09094C21.8363 3.09094 22.3275 3.10738 23.8664 3.1744C25.4054 3.24141 26.4559 3.47787 27.3751 3.82054C28.3377 4.17079 29.2109 4.71831 29.9331 5.42641C30.6685 6.1206 31.2357 6.9602 31.5982 7.88831C31.9553 8.77344 32.1996 9.78501 32.2705 11.2644C32.3414 12.7502 32.3572 13.2231 32.3572 17C32.3572 20.7782 32.3401 21.2512 32.2705 22.7344C32.2009 24.2138 31.9553 25.2254 31.5982 26.1105C31.2357 27.0387 30.6675 27.8797 29.9331 28.5749C29.2109 29.283 28.3377 29.8293 27.3751 30.1783C26.4559 30.5222 25.4054 30.7574 23.8691 30.8257C22.3275 30.894 21.8363 30.9091 17.9127 30.9091C13.9891 30.9091 13.498 30.8927 11.9577 30.8257C10.4213 30.7587 9.37079 30.5222 8.4516 30.1783C7.48765 29.8292 6.61429 29.2821 5.8923 28.5749C5.15745 27.8803 4.58878 27.0397 4.22594 26.1118C3.87008 25.2266 3.62584 24.2151 3.55493 22.7356C3.48402 21.2499 3.46826 20.777 3.46826 17C3.46826 13.2218 3.48533 12.7489 3.55493 11.267C3.62452 9.78501 3.87008 8.77344 4.22594 7.88831C4.58931 6.9603 5.15842 6.11973 5.89362 5.42514C6.61458 4.71768 7.48706 4.17009 8.45028 3.82054C9.36947 3.47787 10.42 3.24268 11.9563 3.1744H11.9577ZM23.7496 5.67803C22.2263 5.61102 21.7694 5.59711 17.9127 5.59711C14.056 5.59711 13.5991 5.61102 12.0758 5.67803C10.6668 5.73999 9.90261 5.96633 9.39311 6.15726C8.71947 6.41016 8.23756 6.70984 7.732 7.19665C7.25277 7.6456 6.88395 8.19214 6.65261 8.7962C6.45432 9.28681 6.21927 10.0227 6.15493 11.3795C6.08533 12.8463 6.07089 13.2863 6.07089 17C6.07089 20.7138 6.08533 21.1538 6.15493 22.6206C6.21927 23.9773 6.45432 24.7133 6.65261 25.2039C6.88372 25.807 7.25271 26.3545 7.732 26.8034C8.19816 27.2649 8.76675 27.6203 9.39311 27.8428C9.90261 28.0337 10.6668 28.2601 12.0758 28.322C13.5991 28.3891 14.0547 28.403 17.9127 28.403C21.7707 28.403 22.2263 28.3891 23.7496 28.322C25.1586 28.2601 25.9228 28.0337 26.4323 27.8428C27.1059 27.5899 27.5879 27.2902 28.0934 26.8034C28.5727 26.3545 28.9417 25.807 29.1728 25.2039C29.3711 24.7133 29.6061 23.9773 29.6705 22.6206C29.7401 21.1538 29.7545 20.7138 29.7545 17C29.7545 13.2863 29.7401 12.8463 29.6705 11.3795C29.6061 10.0227 29.3711 9.28681 29.1728 8.7962C28.9102 8.14753 28.599 7.68347 28.0934 7.19665C27.6272 6.73521 27.0596 6.38008 26.4323 6.15726C25.9228 5.96633 25.1586 5.73999 23.7496 5.67803ZM16.0678 21.2878C17.0981 21.7008 18.2454 21.7566 19.3137 21.4455C20.382 21.1345 21.305 20.4759 21.9251 19.5824C22.5452 18.6888 22.8239 17.6157 22.7136 16.5462C22.6033 15.4768 22.1108 14.4774 21.3203 13.7188C20.8164 13.2338 20.207 12.8625 19.5362 12.6315C18.8653 12.4005 18.1496 12.3157 17.4406 12.383C16.7316 12.4503 16.0469 12.6682 15.4359 13.0209C14.8248 13.3737 14.3026 13.8525 13.9067 14.4229C13.5109 14.9933 13.2513 15.6411 13.1467 16.3197C13.0421 16.9983 13.095 17.6908 13.3017 18.3473C13.5084 19.0039 13.8636 19.6081 14.3419 20.1166C14.8202 20.625 15.4096 21.0251 16.0678 21.2878ZM12.6628 11.9447C13.3522 11.2808 14.1707 10.7542 15.0715 10.3949C15.9723 10.0357 16.9377 9.85073 17.9127 9.85073C18.8877 9.85073 19.8532 10.0356 20.7539 10.3949C21.6547 10.7542 22.4732 11.2808 23.1626 11.9447C23.852 12.6086 24.3989 13.3967 24.772 14.2641C25.1451 15.1315 25.3372 16.0612 25.3372 17C25.3372 17.9389 25.1451 18.8686 24.772 19.736C24.3989 20.6033 23.852 21.3915 23.1626 22.0554C21.7702 23.3961 19.8818 24.1493 17.9127 24.1493C15.9436 24.1493 14.0552 23.3961 12.6628 22.0554C11.2704 20.7146 10.4882 18.8961 10.4882 17C10.4882 15.1039 11.2704 13.2855 12.6628 11.9447ZM26.9838 10.9154C27.1547 10.7602 27.2914 10.5736 27.386 10.3666C27.4806 10.1596 27.5311 9.93645 27.5346 9.71032C27.538 9.48418 27.4943 9.25968 27.406 9.05012C27.3177 8.84055 27.1866 8.65017 27.0205 8.49025C26.8545 8.33033 26.6568 8.20412 26.4391 8.1191C26.2215 8.03408 25.9883 7.99197 25.7535 7.99527C25.5187 7.99856 25.2869 8.0472 25.0719 8.13829C24.857 8.22939 24.6632 8.36109 24.502 8.5256C24.1886 8.84555 24.017 9.27053 24.0236 9.71032C24.0303 10.1501 24.2147 10.5701 24.5377 10.8811C24.8606 11.1921 25.2968 11.3697 25.7535 11.3761C26.2102 11.3825 26.6516 11.2173 26.9838 10.9154Z" fill="#FEFEFE"/>
</svg>
