<svg width="36" height="34" viewBox="0 0 36 34" fill="none" xmlns="http://www.w3.org/2000/svg">
<path d="M8.36128 26.3814H12.6269V13.8125H8.36128V26.3814ZM12.9039 9.93682C12.8916 9.30898 12.67 8.78981 12.2391 8.37929C11.8083 7.96878 11.2358 7.76353 10.5218 7.76353C9.80778 7.76353 9.2261 7.96878 8.77677 8.37929C8.32743 8.78981 8.10276 9.30898 8.10276 9.93682C8.10276 10.5526 8.32127 11.0687 8.7583 11.4853C9.19533 11.9018 9.76469 12.1101 10.4664 12.1101H10.4849C11.2112 12.1101 11.7959 11.9018 12.2391 11.4853C12.6823 11.0687 12.9039 10.5526 12.9039 9.93682ZM23.7065 26.3814H27.9721V19.1733C27.9721 17.314 27.5227 15.9073 26.6241 14.9535C25.7254 13.9997 24.5374 13.5228 23.0601 13.5228C21.3859 13.5228 20.0994 14.2291 19.2008 15.6417H19.2377V13.8125H14.9721C15.009 14.6094 15.009 18.799 14.9721 26.3814H19.2377V19.3544C19.2377 18.8956 19.2808 18.5576 19.367 18.3402C19.5516 17.9176 19.8286 17.5584 20.1979 17.2626C20.5673 16.9668 21.0227 16.8189 21.5644 16.8189C22.9924 16.8189 23.7065 17.7667 23.7065 19.6623V26.3814ZM32.3485 8.30685V25.6932C32.3485 27.13 31.8284 28.3585 30.7881 29.3788C29.7479 30.399 28.4953 30.9091 27.0303 30.9091H9.30305C7.83808 30.9091 6.58548 30.399 5.54523 29.3788C4.50499 28.3585 3.98486 27.13 3.98486 25.6932V8.30685C3.98486 6.87006 4.50499 5.64155 5.54523 4.6213C6.58548 3.60106 7.83808 3.09094 9.30305 3.09094H27.0303C28.4953 3.09094 29.7479 3.60106 30.7881 4.6213C31.8284 5.64155 32.3485 6.87006 32.3485 8.30685Z" fill="#FEFEFE"/>
</svg>
