<svg width="21" height="22" viewBox="0 0 21 22" fill="none" xmlns="http://www.w3.org/2000/svg">
<g clip-path="url(#clip0_1282_612)">
<path d="M17.1989 16.9739C16.7051 17.3614 16.162 17.6942 15.5798 17.9637C14.4656 18.4795 13.2395 18.7489 11.9953 18.75C9.79531 18.7498 7.69339 17.9236 6.14995 16.4653C4.60781 15.0081 3.75 13.0413 3.75 11C3.75 8.95874 4.60781 6.99185 6.14995 5.53474C7.69334 4.07644 9.79519 3.25021 11.9952 3.25C12.0988 3.25024 12.2024 3.25236 12.3059 3.25636C11.4741 4.04694 10.8173 4.99929 10.387 6.05896C9.72321 7.6934 9.63653 9.48928 10.1412 11.1755C10.6456 12.8611 11.7112 14.3391 13.1696 15.3937C14.3517 16.2485 15.7419 16.7895 17.1989 16.9739Z" fill="#EEEEEE" stroke="#EEEEEE" stroke-width="1.5"/>
</g>
<defs>
<clipPath id="clip0_1282_612">
<rect width="21" height="21" fill="white" transform="translate(0 0.5)"/>
</clipPath>
</defs>
</svg>
