<svg width="34" height="34" viewBox="0 0 34 34" fill="none" xmlns="http://www.w3.org/2000/svg">
<path d="M14.2589 12.3189C13.7872 12.1228 13.2772 12.0443 12.7544 12.0574C12.4229 12.0574 12.1297 12.0574 11.8874 12.0704C11.6324 12.0574 11.4539 12.0704 11.3647 12.0835V16.4776C11.5432 16.4906 11.7089 16.5037 11.8619 16.5037H12.5377C13.0349 16.5037 13.5322 16.4252 14.0039 16.2683C14.4119 16.1506 14.7689 15.9021 15.0494 15.5752C15.3172 15.2483 15.4447 14.8036 15.4447 14.2282C15.4574 13.8228 15.3554 13.4174 15.1514 13.0643C14.9389 12.7248 14.6262 12.4636 14.2589 12.3189ZM26.8814 1.7H7.11895C4.1227 1.7 1.7002 4.18472 1.7002 7.25793V26.7421C1.7002 29.8153 4.1227 32.3 7.11895 32.3H26.8814C29.8777 32.3 32.3002 29.8153 32.3002 26.7421V7.25793C32.3002 4.18472 29.8777 1.7 26.8814 1.7ZM17.4579 16.9353C16.9492 17.6676 16.2352 18.2169 15.4064 18.5307C14.5394 18.8577 13.5832 18.9754 12.5377 18.9754C12.2317 18.9754 12.0277 18.9754 11.9002 18.9623C11.7727 18.9492 11.5942 18.9492 11.3519 18.9492V23.1458C11.3647 23.2373 11.3009 23.3171 11.2117 23.3302H8.73819C8.6362 23.3302 8.5852 23.2765 8.5852 23.1588V9.70342C8.5852 9.61187 8.62345 9.55956 8.7127 9.55956C8.92945 9.55956 9.13345 9.55956 9.42669 9.54649C9.73269 9.53341 10.0514 9.53341 10.3957 9.52033C10.7399 9.50725 11.1097 9.50725 11.5049 9.49418C11.9002 9.4811 12.2827 9.4811 12.6652 9.4811C13.7107 9.4811 14.5777 9.61187 15.2917 9.8865C15.9292 10.1088 16.5157 10.475 17.0002 10.9589C17.4082 11.3773 17.7269 11.8874 17.9309 12.4497C18.1209 12.9989 18.2229 13.5613 18.2229 14.1498C18.2242 15.2744 17.9692 16.2029 17.4579 16.9353ZM26.4989 22.0224C26.1419 22.5455 25.6434 22.9496 25.0709 23.1876C24.4462 23.4609 23.6812 23.6035 22.7619 23.6035C22.1767 23.6035 21.6017 23.5525 21.0292 23.4348C20.5829 23.355 20.1367 23.2125 19.7287 23.0163C19.6394 22.9653 19.5744 22.8737 19.5872 22.7691V20.4936C19.5872 20.4557 19.6012 20.4021 19.6394 20.3759C19.6764 20.3498 19.7159 20.3629 19.7542 20.389C20.2514 20.6898 20.7742 20.9004 21.3352 21.0298C21.8184 21.1606 22.3284 21.226 22.8397 21.226C23.3242 21.226 23.6684 21.1593 23.8979 21.0416C24.1019 20.9501 24.2422 20.7277 24.2422 20.4923C24.2422 20.3079 24.1402 20.1392 23.9362 19.9692C23.7322 19.8005 23.3127 19.6044 22.688 19.3533C22.0377 19.1179 21.4397 18.804 20.8775 18.413C20.4785 18.1199 20.1473 17.7404 19.9072 17.3014C19.7045 16.8877 19.6043 16.4291 19.6152 15.9662C19.6152 15.4039 19.7682 14.8677 20.05 14.3838C20.3687 13.8607 20.8392 13.4423 21.3875 13.1807C21.9854 12.8682 22.7377 12.7243 23.6429 12.7243C24.1657 12.7243 24.7012 12.7635 25.2239 12.842C25.6064 12.8943 25.9762 12.9989 26.3204 13.1428C26.3702 13.1559 26.4224 13.2082 26.4479 13.2605C26.4607 13.3128 26.4734 13.3651 26.4734 13.4174V15.5491C26.4734 15.6014 26.4479 15.6537 26.4097 15.6798C26.2949 15.706 26.2312 15.706 26.1802 15.6798C25.7977 15.4706 25.3897 15.3267 24.9562 15.2352C24.4844 15.1306 24.0127 15.0652 23.5282 15.0652C23.2732 15.0521 23.0054 15.0913 22.7619 15.1567C22.5974 15.196 22.4559 15.2875 22.3667 15.4183C22.3029 15.5229 22.2647 15.6537 22.2647 15.7714C22.2647 15.8891 22.3157 16.0068 22.3934 16.1114C22.5082 16.2552 22.6599 16.3729 22.8269 16.4645C23.1189 16.6214 23.4262 16.7653 23.7309 16.896C24.4207 17.1314 25.0837 17.4584 25.6957 17.8507C26.1164 18.124 26.4607 18.4915 26.7017 18.9361C26.9057 19.352 27.0077 19.8123 26.9949 20.2818C27.0089 20.8977 26.8304 21.5111 26.4989 22.0224Z" fill="#FF7759"/>
</svg>
